<svg width="200" height="200" viewBox="0 0 200 200" fill="none" aria-label="pinterest" role="img" xmlns="http://www.w3.org/2000/svg">
    <circle cx="100" cy="100" r="100" fill="white"/>
    <path fill-rule="evenodd" clip-rule="evenodd" d="M100 200C155.228 200 200 155.228 200 100C200 44.7715 155.228 0 100 0C44.7715 0 0 44.7715 0 100C0 132.741 15.7347 161.807 40.0549 180.049C42.4826 167.942 45.9484 151.82 50.4522 131.68C58.9322 93.6 63.1722 69.6 63.1722 59.68C63.1722 57.76 62.0522 55.28 59.8122 52.24C57.7322 49.04 55.5722 46.4 53.3322 44.32L50.2122 41.2L50.9322 37.6C77.8122 33.6 99.5722 31.6 116.212 31.6C149.172 31.6 165.652 45.04 165.652 71.92C165.652 89.84 159.732 104.96 147.892 117.28C136.052 129.44 118.452 135.52 95.0922 135.52C90.7722 135.52 87.4922 135.44 85.2522 135.28C78.6347 164.212 74.8297 184.633 73.837 196.543C82.1764 198.797 90.9477 200 100 200ZM119.092 105.52C112.852 114.8 103.572 119.44 91.2522 119.44H88.8522C95.8922 88.72 100.692 64.96 103.252 48.16C107.732 47.04 111.492 46.48 114.532 46.48C119.172 46.48 122.692 48.56 125.092 52.72C127.492 56.72 128.692 61.92 128.692 68.32C128.692 83.84 125.492 96.24 119.092 105.52Z" fill="#E60023"/>
</svg>
